<svg id="Layer_1" data-name="Layer 1" xmlns="http://www.w3.org/2000/svg" viewBox="0 0 15 15"><defs><style>.cls-1{fill:#fb6340;}</style></defs><title>artwork</title><g id="Group_2" data-name="Group 2"><g id="Group_1" data-name="Group 1"><path id="Path_103" data-name="Path 103" class="cls-1" d="M7.49,0h5.4a2.75,2.75,0,0,1,.9.12,1.71,1.71,0,0,1,1.15,1.46,5.78,5.78,0,0,1,.05.83V12.55a3.58,3.58,0,0,1-.08.86A1.93,1.93,0,0,1,12.75,15c-.77,0-1.55,0-2.33,0h-8a3.75,3.75,0,0,1-1.15-.15A1.79,1.79,0,0,1,0,13.09V1.84A1.74,1.74,0,0,1,1.67,0h.18C3.73,0,5.61,0,7.49,0Zm0,1.07H2.07c-.76,0-1,.22-1,1v9.29c0,.08,0,.2.06.25s.16-.07.22-.13C2.18,10.7,3,9.94,3.82,9.17c.21-.2.34-.2.55,0,.85.81,1.72,1.6,2.58,2.4.16.15.27.16.43,0,.5-.45,1-.88,1.52-1.34.22-.2.35-.22.57,0,1.07,1.14,2.16,2.26,3.24,3.39a.59.59,0,0,0,.84.1.49.49,0,0,0,.16-.19,1.38,1.38,0,0,0,.22-.84V2.32c0-.12,0-.25,0-.37-.09-.7-.28-.88-1-.88q-2.72,0-5.43,0Z"/><path id="Path_104" data-name="Path 104" class="cls-1" d="M10,8a2,2,0,1,1,2-2h0A2,2,0,0,1,10,8Z"/></g></g></svg>