<svg id="Layer_1" data-name="Layer 1" xmlns="http://www.w3.org/2000/svg" viewBox="0 0 15 15"><defs><style>.cls-1{fill:#f90;}</style></defs><title>billing</title><path id="Rectangle_21" data-name="Rectangle 21" class="cls-1" d="M1.5,14.88A1.5,1.5,0,0,1,0,13.38H0a2,2,0,0,1,0-.25V4.19A1.51,1.51,0,0,1,1.09,2.75l9-2.57a1.49,1.49,0,0,1,1.85,1,1.45,1.45,0,0,1,.06.41v8.94A1.5,1.5,0,0,1,10.91,12L6.1,13.38h7.4v-6H12V5.88h1.5V4.38H12V2.88h1.5A1.5,1.5,0,0,1,15,4.38v9a1.5,1.5,0,0,1-1.5,1.5H1.5Zm0-10.69v8.94l9-2.57V1.62Zm6,1.69a.75.75,0,1,1,.75.75.75.75,0,0,1-.75-.75Z"/></svg>