<svg id="Layer_1" data-name="Layer 1" xmlns="http://www.w3.org/2000/svg" viewBox="0 0 15 15"><defs><style>.cls-1{fill:#008cff;}</style></defs><title>Blankproducts</title><path id="Path_5334" data-name="Path 5334" class="cls-1" d="M14.9,5.39c-.69-1.35-1.4-2.7-2.09-4a.49.49,0,0,0-.39-.29L9.66.61c-.5-.09-.55,0-.56.48A1.6,1.6,0,0,1,6,1.68a1.71,1.71,0,0,1-.11-.59c0-.53-.06-.57-.59-.48l-2.72.44a.51.51,0,0,0-.41.31q-1,2-2.08,4c-.18.35-.13.46.25.59l2.59.86a.32.32,0,0,1,.27.36c0,.63,0,1.26,0,1.89,0,1,0,1.93,0,2.89h0v2c0,.41.07.49.48.49h7.55c.51,0,.56,0,.56-.54V12h0c0-1.56,0-3.12,0-4.68a.42.42,0,0,1,.36-.49c.85-.26,1.69-.56,2.53-.84C15,5.84,15.08,5.73,14.9,5.39Z"/></svg>