<svg xmlns="http://www.w3.org/2000/svg" width="29.99" height="27.859" viewBox="0 0 29.99 27.859"><defs><style>.a{fill:#fafbfc;stroke:#000;stroke-width:2px;}</style></defs><path class="a" d="M27.814,9.562C26.526,7.043,25.2,4.524,23.914,2.1a.914.914,0,0,0-.728-.541L18.035.642c-.933-.168-1.026,0-1.045.9a2.986,2.986,0,0,1-5.785,1.1A3.191,3.191,0,0,1,11,1.538c0-.989-.112-1.064-1.1-.9l-5.076.821a.952.952,0,0,0-.765.578Q2.192,5.774.177,9.506c-.336.653-.243.858.467,1.1l4.833,1.6a.6.6,0,0,1,.5.672q0,1.763,0,3.527V21.8h0v3.732c0,.765.131.914.9.914H20.965c.952,0,1.045,0,1.045-1.008V21.9h0V13.164a.784.784,0,0,1,.672-.914c1.586-.485,3.154-1.045,4.721-1.568C28,10.4,28.15,10.2,27.814,9.562Z" transform="translate(1.003 0.409)"/></svg>