<svg id="Layer_1" data-name="Layer 1" xmlns="http://www.w3.org/2000/svg" viewBox="0 0 15 15"><defs><style>.cls-1{fill:#6c63ff;}</style></defs><title>customer</title><path id="icon" class="cls-1" d="M2.2,12.8a7.5,7.5,0,1,1,10.6,0A7.49,7.49,0,0,1,2.2,12.8ZM1.36,7.5A6.14,6.14,0,1,0,7.5,1.36h0A6.15,6.15,0,0,0,1.36,7.5ZM4,8.86V8.18h7l0,.66a3.31,3.31,0,0,1-.82,2.5,3.54,3.54,0,0,1-2.67.93C5.22,12.27,4,11.06,4,8.86Zm3.56,2.05c1.28,0,1.93-.42,2.09-1.36H5.38C5.58,10.49,6.24,10.91,7.52,10.91ZM8.86,6.14V4.77h2.05V6.14Zm-4.77,0V4.77h2V6.14Z"/></svg>