<svg id="Layer_1" data-name="Layer 1" xmlns="http://www.w3.org/2000/svg" viewBox="0 0 15 15"><defs><style>.cls-1{fill:#6772e5;}</style></defs><title>Group 12</title><g id="Group_12" data-name="Group 12"><path id="Rectangle_156" data-name="Rectangle 156" class="cls-1" d="M1,0H6A1,1,0,0,1,7,1V7H1A1,1,0,0,1,0,6V1A1,1,0,0,1,1,0Z"/><path id="Rectangle_158" data-name="Rectangle 158" class="cls-1" d="M1,8H7v6a1,1,0,0,1-1,1H1a1,1,0,0,1-1-1V9A1,1,0,0,1,1,8Z"/><path id="Rectangle_157" data-name="Rectangle 157" class="cls-1" d="M9,0h5a1,1,0,0,1,1,1V6a1,1,0,0,1-1,1H8V1A1,1,0,0,1,9,0Z"/><path id="Rectangle_159" data-name="Rectangle 159" class="cls-1" d="M8,8h6a1,1,0,0,1,1,1v5a1,1,0,0,1-1,1H9a1,1,0,0,1-1-1V8Z"/></g></svg>