<svg xmlns="http://www.w3.org/2000/svg" width="35.768" height="35.757" viewBox="0 0 35.768 35.757"><g transform="translate(0 -0.078)"><g transform="translate(11.339 11.968)"><path d="M165.232,177.2l2.344-1.563a2.929,2.929,0,0,0-1.625-5.367h-.7a2.934,2.934,0,0,0-2.93,2.93h1.194a1.739,1.739,0,0,1,1.737-1.737h.7a1.739,1.739,0,0,1,1.737,1.739,1.721,1.721,0,0,1-.773,1.442l-2.345,1.564a5.052,5.052,0,0,0-2.253,4.209.6.6,0,0,0,.6.6h5.968v-1.194h-5.325A3.86,3.86,0,0,1,165.232,177.2Z" transform="translate(-162.317 -170.274)"/></g><g transform="translate(18.501 11.877)"><path d="M266.127,176.227l1.087-7.071-1.18-.181-1.194,7.759a.6.6,0,0,0,.59.688h7.162v-1.194Z" transform="translate(-264.833 -168.975)"/></g><g transform="translate(23.276 11.969)"><rect width="1.194" height="10.743"/></g><g transform="translate(1.351 9.776)"><g transform="translate(0 0)"><rect width="1.194" height="9.716" transform="translate(0 0.807) rotate(-42.508)"/></g></g><g transform="translate(18.099 27.046)"><g transform="translate(0 0)"><rect width="1.194" height="8.872" transform="matrix(0.673, -0.74, 0.74, 0.673, 0, 0.883)"/></g></g><g transform="translate(0 7.193)"><path d="M28.178,126.286a.569.569,0,0,0-.089-.1l-6.8-6.195a.6.6,0,0,0-.733-.055l-3.743,2.495a1.793,1.793,0,0,1-2.26-.223l-6.181-6.21a1.8,1.8,0,0,1-.227-2.234l2.495-3.743a.6.6,0,0,0-.057-.734l-6.565-7.162a.59.59,0,0,0-.46-.193.6.6,0,0,0-.446.224C.989,104.808,0,108.151,0,112.671a17.911,17.911,0,0,0,27.956,14.817l.013-.008A.869.869,0,0,0,28.178,126.286Zm-24.1-4.234a16.651,16.651,0,0,1-2.882-9.382c0-3.916.776-6.867,2.433-9.213l5.763,6.287L7.152,113.1a3,3,0,0,0,.375,3.732l6.184,6.213a2.991,2.991,0,0,0,3.767.373l3.354-2.236,6.094,5.554A16.733,16.733,0,0,1,4.076,122.053Z" transform="translate(0 -101.928)"/></g><g transform="translate(17.307 4.807)"><rect width="1.194" height="2.387"/></g><g transform="translate(10.823 6.27)"><g transform="translate(0 0)"><rect width="1.194" height="2.385" transform="translate(0 0.597) rotate(-30.026)"/></g></g><g transform="translate(28.647 17.34)"><rect width="2.387" height="1.194"/></g><g transform="translate(26.908 10.858)"><g transform="translate(0 0)"><rect width="2.385" height="1.193" transform="matrix(0.866, -0.5, 0.5, 0.866, 0, 1.193)"/></g></g><g transform="translate(22.761 6.269)"><g transform="translate(0 0)"><rect width="2.385" height="1.194" transform="matrix(0.5, -0.866, 0.866, 0.5, 0, 2.065)"/></g></g><g transform="translate(4.775 0.078)"><path d="M98.547,27.01l-1.166-.887A17.9,17.9,0,0,0,68.511,5.588a.6.6,0,0,0,.009.835l1.79,1.79a.555.555,0,0,0,.432.175.6.6,0,0,0,.426-.189A14.533,14.533,0,0,1,81.474,3.613,14.34,14.34,0,0,1,95.8,17.937a19.694,19.694,0,0,1-1.352,5.883l-1.266-.983a.6.6,0,0,0-.961.417l-.6,6.565a.6.6,0,0,0,.594.651.589.589,0,0,0,.222-.043l5.968-2.387a.6.6,0,0,0,.14-1.03ZM92.9,28.958l.41-4.509,1.037.8a.6.6,0,0,0,.916-.241,22.8,22.8,0,0,0,1.73-7.076A15.537,15.537,0,0,0,81.465,2.42,15.745,15.745,0,0,0,70.727,6.941L69.784,6A16.711,16.711,0,0,1,96.092,26.006a.6.6,0,0,0,.162.762l.731.556Z" transform="translate(-68.345 -0.078)"/></g></g></svg>