<svg xmlns="http://www.w3.org/2000/svg" width="100.617" height="106" viewBox="0 0 100.617 106">
  <g id="journal" transform="translate(-13)">
    <path id="Path_43" data-name="Path 43" d="M135.07,104.844h41.406a2.071,2.071,0,0,0,2.07-2.07V82.07a2.071,2.071,0,0,0-2.07-2.07H135.07A2.07,2.07,0,0,0,133,82.07v20.7A2.07,2.07,0,0,0,135.07,104.844Zm2.07-20.7h37.266V100.7H137.141Z" transform="translate(-95.156 -63.437)" fill="#f12473"/>
    <path id="Path_44" data-name="Path 44" d="M201.984,220H175.07a2.07,2.07,0,0,0,0,4.141h26.914a2.07,2.07,0,0,0,0-4.141Z" transform="translate(-126.875 -174.453)" fill="#f12473"/>
    <path id="Path_45" data-name="Path 45" d="M135.07,264.141h28.984a2.07,2.07,0,0,0,0-4.141H135.07a2.07,2.07,0,0,0,0,4.141Z" transform="translate(-95.156 -206.172)" fill="#f12473"/>
    <path id="Path_46" data-name="Path 46" d="M135.07,304.141h20.7a2.07,2.07,0,0,0,0-4.141h-20.7a2.07,2.07,0,0,0,0,4.141Z" transform="translate(-95.156 -237.891)" fill="#f12473"/>
    <path id="Path_47" data-name="Path 47" d="M149.563,340H135.07a2.07,2.07,0,1,0,0,4.141h14.492a2.07,2.07,0,1,0,0-4.141Z" transform="translate(-95.156 -269.609)" fill="#f12473"/>
    <path id="Path_48" data-name="Path 48" d="M147.492,380H135.07a2.07,2.07,0,1,0,0,4.141h12.422a2.07,2.07,0,1,0,0-4.141Z" transform="translate(-95.156 -301.328)" fill="#f12473"/>
    <path id="Path_49" data-name="Path 49" d="M113.011,44.29l-6.817-6.817,1.642-1.642a2.07,2.07,0,0,0-2.928-2.928l-1.641,1.642L101.624,32.9a2.071,2.071,0,0,0-2.928,0l-7.024,7.024V10.352a2.071,2.071,0,0,0-2.07-2.07H33.495A10.352,10.352,0,0,0,13,10.352v85.3A10.363,10.363,0,0,0,23.352,106H81.32a2.071,2.071,0,0,0,2.07-2.07V97.719H89.6a2.071,2.071,0,0,0,2.07-2.07V58.205l14.7-14.7,2.248,2.248L97.661,56.712a2.07,2.07,0,1,0,2.928,2.928l12.422-12.422A2.071,2.071,0,0,0,113.011,44.29ZM67.942,76.079,62.47,78.268,64.659,72.8,87.738,49.717,91.021,53ZM23.352,4.141a6.218,6.218,0,0,1,6.211,6.211V87.373a10.329,10.329,0,0,0-12.422,0V10.352A6.218,6.218,0,0,1,23.352,4.141Zm55.9,97.719h-55.9a6.211,6.211,0,1,1,6.211-6.211,2.07,2.07,0,0,0,2.07,2.07H79.25Zm8.281-8.281H33.7V12.422H87.531V44.068l-26.1,26.1a2.074,2.074,0,0,0-.458.695L56.832,81.215a2.07,2.07,0,0,0,2.691,2.691l10.352-4.141a2.072,2.072,0,0,0,.695-.458L87.531,62.346Zm6.418-43.506-3.283-3.283L100.16,37.3l3.283,3.283Z" fill="#f12473"/>
  </g>
</svg>
