<svg xmlns="http://www.w3.org/2000/svg" width="100.549" height="93.645" viewBox="0 0 100.549 93.645">
  <g id="Group_63" data-name="Group 63" transform="translate(-457 -363)">
    <path id="Path_1" data-name="Path 1" d="M79.929,0H41.707A20.658,20.658,0,0,0,22.026,14.464H20.62A20.644,20.644,0,0,0,0,35.085v37.94a20.644,20.644,0,0,0,20.62,20.62H58.842A20.657,20.657,0,0,0,78.523,79.181h1.405a20.644,20.644,0,0,0,20.62-20.62V20.62A20.644,20.644,0,0,0,79.929,0ZM94.657,58.56A14.745,14.745,0,0,1,79.929,73.289h-.47c0-.088,0-.176,0-.265V35.085a20.644,20.644,0,0,0-20.62-20.62H28.332A14.745,14.745,0,0,1,41.707,5.892H79.929A14.745,14.745,0,0,1,94.658,20.62ZM58.842,87.753H20.62A14.745,14.745,0,0,1,5.891,73.024V35.085A14.745,14.745,0,0,1,20.62,20.356H58.842A14.745,14.745,0,0,1,73.571,35.085v37.94A14.745,14.745,0,0,1,58.842,87.753Zm0,0" transform="translate(457 363)" fill="#ff7a96"/>
    <path id="Path_2" data-name="Path 2" d="M122.825,249.939A13.494,13.494,0,0,1,136.3,263.417a2.946,2.946,0,0,0,5.892,0,19.393,19.393,0,0,0-19.371-19.37,2.946,2.946,0,0,0,0,5.892Zm0,0" transform="translate(360.664 166.88)" fill="#ff7a96"/>
    <path id="Path_3" data-name="Path 3" d="M116.606,309.357a3.034,3.034,0,0,1,3.031,3.031,2.946,2.946,0,0,0,5.892,0,8.932,8.932,0,0,0-8.922-8.922,2.946,2.946,0,0,0,0,5.892Zm0,0" transform="translate(365.661 119.131)" fill="#ff7a96"/>
    <path id="Path_4" data-name="Path 4" d="M131.141,192.49a23.154,23.154,0,0,1,23.128,23.128,2.946,2.946,0,1,0,5.892,0,29.052,29.052,0,0,0-29.02-29.019,2.946,2.946,0,0,0,0,5.892Zm0,0" transform="translate(353.981 213.047)" fill="#ff7a96"/>
  </g>
</svg>
