<svg xmlns="http://www.w3.org/2000/svg" width="100.712" height="101.073" viewBox="0 0 100.712 101.073">
  <g id="Group_58" data-name="Group 58" transform="translate(-2317 -363)">
    <path id="Path_36" data-name="Path 36" d="M92.221,41.36H74.127V35.421a1.48,1.48,0,1,0-2.96,0V41.36h-6.13a1.48,1.48,0,0,0,0,2.96h6.13v6.266H70.057A2.816,2.816,0,0,0,67.244,53.4V70.818a2.816,2.816,0,0,0,2.813,2.812h1.111V85.37a1.48,1.48,0,1,0,2.96,0V73.63h1.111a2.816,2.816,0,0,0,2.812-2.812V53.4a2.816,2.816,0,0,0-2.812-2.812H74.127V44.319H92.221a6.456,6.456,0,0,1,6.449,6.449v50.646H3.877V50.768a6.456,6.456,0,0,1,6.449-6.449h25.94v2.888H35.154a2.816,2.816,0,0,0-2.812,2.812V67.44a2.816,2.816,0,0,0,2.812,2.812h1.111V83.328a1.48,1.48,0,0,0,2.96,0V70.253h1.111a2.816,2.816,0,0,0,2.812-2.812V50.02a2.816,2.816,0,0,0-2.812-2.812H39.224V44.319h6.13a1.48,1.48,0,0,0,0-2.96h-6.13v-.731a1.48,1.48,0,1,0-2.96,0v.731H10.325A9.419,9.419,0,0,0,.917,50.768v52.126a9.419,9.419,0,0,0,9.408,9.408H32.851v7.524l-4.769,5.532H26.188a1.48,1.48,0,1,0,0,2.96H76.221a1.48,1.48,0,0,0,0-2.96H74.464l-4.769-5.532V112.3H92.221a9.419,9.419,0,0,0,9.408-9.408V50.768a9.419,9.419,0,0,0-9.408-9.408ZM75.09,70.671H70.2V53.545h4.887V70.671Zm-34.9-3.378H35.3V50.167h4.887Zm52.033,42.05H62.272a1.48,1.48,0,1,0,0,2.96h4.463V118.9H63.049a1.48,1.48,0,1,0,0,2.96h4.488l3.02,3.5H31.989l3.02-3.5H39.5a1.48,1.48,0,1,0,0-2.96H35.81V112.3H55.966a1.48,1.48,0,1,0,0-2.96H10.325a6.459,6.459,0,0,1-6.275-4.969H98.5A6.458,6.458,0,0,1,92.221,109.343Z" transform="translate(2316.083 335.756)" fill="#fb6340"/>
    <path id="Path_37" data-name="Path 37" d="M73.219,141.552a1.48,1.48,0,0,0-1.48,1.48V146.6a2.815,2.815,0,0,0,2.812,2.812h1.111v7.88a1.48,1.48,0,1,0,2.96,0v-7.88h1.111a2.815,2.815,0,0,0,2.812-2.812V129.183a2.816,2.816,0,0,0-2.812-2.813H78.621V124a1.48,1.48,0,1,0-2.96,0v2.367H74.551a2.816,2.816,0,0,0-2.812,2.813v7.542a1.48,1.48,0,1,0,2.96,0V129.33h4.887v17.126H74.7v-3.425A1.48,1.48,0,0,0,73.219,141.552Z" transform="translate(2259.234 264.65)" fill="#fb6340"/>
    <path id="Path_38" data-name="Path 38" d="M251.451,40.08h1.111v7.88a1.48,1.48,0,0,0,2.96,0V40.08h1.111a2.816,2.816,0,0,0,2.812-2.813V25.661a1.48,1.48,0,1,0-2.96,0v11.46H251.6V10.326h4.887v9.028a1.48,1.48,0,1,0,2.96,0V10.179a2.816,2.816,0,0,0-2.812-2.812h-1.111V1.48a1.48,1.48,0,0,0-2.96,0V7.367h-1.111a2.816,2.816,0,0,0-2.812,2.812V37.268A2.815,2.815,0,0,0,251.451,40.08Z" transform="translate(2117.237 363)" fill="#fb6340"/>
    <path id="Path_39" data-name="Path 39" d="M407.033,169.476a1.479,1.479,0,0,0,2,.6l6.816-3.675-.49,1.287a1.48,1.48,0,1,0,2.766,1.054l1.666-4.373a1.48,1.48,0,0,0-.856-1.91L414.3,160.69a1.48,1.48,0,0,0-1.054,2.766l1.076.41-6.687,3.605A1.48,1.48,0,0,0,407.033,169.476Z" transform="translate(1990.237 234.092)" fill="#fb6340"/>
    <path id="Path_40" data-name="Path 40" d="M44.776,263.211a1.479,1.479,0,0,0,1.943.778l19.094-8.172,1.735,4.546a1.48,1.48,0,0,0,2.085.775l31.545-17.008a1.48,1.48,0,0,0-1.4-2.6L69.712,257.733l-1.683-4.41a1.48,1.48,0,0,0-1.965-.833l-20.51,8.778a1.48,1.48,0,0,0-.778,1.943Z" transform="translate(2280.973 169.271)" fill="#fb6340"/>
  </g>
</svg>
