<svg xmlns="http://www.w3.org/2000/svg" width="100.339" height="102.991" viewBox="0 0 100.339 102.991">
  <g id="Group_59" data-name="Group 59" transform="translate(-1052 -363)">
    <path id="Path_9" data-name="Path 9" d="M21.032,17.9a9.027,9.027,0,0,0-.376,2.569c0,.23.018.455.034.681a6.893,6.893,0,0,1-2.142,2.944,1.93,1.93,0,0,0,2.237,3.132,7.6,7.6,0,0,0,1.382-1.1,7.532,7.532,0,0,1-1.6,2.066,2.026,2.026,0,0,0,2.6,3.1,9.51,9.51,0,0,0,1.3-1.2,4.977,4.977,0,0,0,1-1.627A9.019,9.019,0,0,0,36.8,26.046a5.189,5.189,0,0,0,.316,1.44,2.571,2.571,0,0,0,4.44.532,2.6,2.6,0,0,0,.088-2.97c-.831-1.3-.733-1.912-.733-1.912a1.3,1.3,0,0,0,.214.133A2.279,2.279,0,0,0,44.243,21.8l.019-.061a2.345,2.345,0,0,0-1.017-2.668,14.628,14.628,0,0,1-3.807-3.6,10.766,10.766,0,0,0-12.392-5.292c.007-.092.028-.179.028-.273a3.837,3.837,0,1,0-7.588.8,3.814,3.814,0,0,0,1.547,7.2ZM29.7,27.7a7.207,7.207,0,0,1-5.382-2.419L24,24.789a13.343,13.343,0,0,0,8.214-10.159,7.439,7.439,0,0,0,3.771,2.29A7.222,7.222,0,0,1,29.7,27.7Z" transform="translate(1042.191 356.934)" fill="#18bacf"/>
    <path id="Path_10" data-name="Path 10" d="M108.435,109.943H40.723a4.283,4.283,0,0,0,1.37-3.18c-.115-10.9-.4-31.379-.463-40.659-.03-4.312-1.464-8.615-.691-12.857l.96-5.264c.015-.163.025-.322.034-.481a13.289,13.289,0,0,0-1.477-7.264.893.893,0,0,1,.12-1.095.863.863,0,0,1,.158-.152.9.9,0,0,1,1.246.274,14.644,14.644,0,0,1,1.775,8.147l9.636-.478a18.076,18.076,0,0,0,4.483-.8l14.8-4.612a3.755,3.755,0,0,0-2.012-7.231L59,37.158a18.078,18.078,0,0,1-8.5.029L40,34.688a21.2,21.2,0,0,0-4.288-.559l.012-.015H26.684a8.17,8.17,0,0,0-7.357,4.663L13.2,51.749a6.31,6.31,0,0,0-.6,2.675A6.224,6.224,0,0,0,17.061,60.4c.133.04.258.1.395.128l15.606,3.618a2.547,2.547,0,0,0,1.449-4.873l-11.79-4.3a1.808,1.808,0,0,1-1.006-2.488l2.534-5.227a.9.9,0,0,1,1.208-.419.857.857,0,0,1,.154.117.89.89,0,0,1,.264,1.09l-2.534,5.228,11.79,4.3a4.355,4.355,0,0,1-2.477,8.333L17.048,62.292,17,62.277a54.773,54.773,0,0,0,.964,12.3l.4,2.046a54.755,54.755,0,0,1,.994,9.2c.14,6.087.328,14.974.47,21.087a4.289,4.289,0,0,0,1.361,3.036H9.9a.9.9,0,1,0,0,1.808h98.531a.9.9,0,1,0,0-1.808Zm-81.333,0a4.3,4.3,0,0,0,1.346-2.9c.462-8.262,1.119-21.623,1.39-26.506a1.051,1.051,0,0,1,2.1.009l1.384,26.477a4.3,4.3,0,0,0,1.351,2.916Z" transform="translate(1043 354.24)" fill="#18bacf"/>
    <path id="Path_11" data-name="Path 11" d="M102.995,84.134a1.8,1.8,0,0,0-1.807-1.939H83V104A21.889,21.889,0,0,0,102.995,84.134Z" transform="translate(1035.893 349.622)" fill="#18bacf"/>
    <path id="Path_12" data-name="Path 12" d="M78.675,59.858a1.8,1.8,0,0,0-1.937-1.78,21.889,21.889,0,0,0-19.9,23.2A21.5,21.5,0,0,0,59.2,89.782L78.675,78.459Z" transform="translate(1038.41 351.939)" fill="#18bacf"/>
    <path id="Path_13" data-name="Path 13" d="M77.632,104.108c.468.029.932.038,1.394.038V82.939l-18.582,10.8A21.942,21.942,0,0,0,77.632,104.108Z" transform="translate(1038.059 349.55)" fill="#18bacf"/>
    <path id="Path_14" data-name="Path 14" d="M89.7,74.483h18.183A2.737,2.737,0,0,0,109.9,73.6a2.688,2.688,0,0,0,.7-2.043A22.732,22.732,0,0,0,89.922,50.879a2.688,2.688,0,0,0-2.046.7,2.73,2.73,0,0,0-.884,2.007v18.19A2.714,2.714,0,0,0,89.7,74.483Zm-.9-20.9a.917.917,0,0,1,.3-.674.867.867,0,0,1,.589-.232c.026,0,.051,0,.077,0a20.926,20.926,0,0,1,19.032,19.032.864.864,0,0,1-.229.663.925.925,0,0,1-.679.3H89.7a.9.9,0,0,1-.9-.9Z" transform="translate(1035.509 352.63)" fill="#18bacf"/>
  </g>
</svg>
