<svg xmlns="http://www.w3.org/2000/svg" width="100.04" height="100.043" viewBox="0 0 100.04 100.043">
  <g id="Group_57" data-name="Group 57" transform="translate(-1296 -1136)">
    <g id="Group_34" data-name="Group 34" transform="translate(1357.327 1166.843)">
      <g id="Group_33" data-name="Group 33" transform="translate(0 0)">
        <path id="Path_25" data-name="Path 25" d="M316.213,157.887l-.085-.014a1.954,1.954,0,1,0-.619,3.859l.068.011a1.954,1.954,0,1,0,.635-3.856Z" transform="translate(-313.865 -157.848)" fill="#008cff"/>
      </g>
    </g>
    <g id="Group_40" data-name="Group 40" transform="translate(1331.312 1177.62)">
      <g id="Group_39" data-name="Group 39" transform="translate(0 0)">
        <path id="Path_28" data-name="Path 28" d="M204.871,213H182.682a1.954,1.954,0,1,0,0,3.908h22.189a1.954,1.954,0,1,0,0-3.908Z" transform="translate(-180.728 -213)" fill="#008cff"/>
      </g>
    </g>
    <g id="Group_42" data-name="Group 42" transform="translate(1334.005 1152.92)">
      <g id="Group_41" data-name="Group 41" transform="translate(0 0)">
        <path id="Path_29" data-name="Path 29" d="M204.864,86.593A10.356,10.356,0,1,0,215.22,96.949,10.368,10.368,0,0,0,204.864,86.593Zm0,16.8a6.448,6.448,0,1,1,6.448-6.448A6.455,6.455,0,0,1,204.864,103.4Z" transform="translate(-194.508 -86.593)" fill="#008cff"/>
      </g>
    </g>
    <g id="Group_44" data-name="Group 44" transform="translate(1342.403 1136)">
      <g id="Group_43" data-name="Group 43" transform="translate(0)">
        <path id="Path_30" data-name="Path 30" d="M239.445,0a1.954,1.954,0,0,0-1.954,1.954v8.429a1.954,1.954,0,0,0,3.908,0V1.954A1.954,1.954,0,0,0,239.445,0Z" transform="translate(-237.491)" fill="#008cff"/>
      </g>
    </g>
    <g id="Group_46" data-name="Group 46" transform="translate(1353.501 1142.985)">
      <g id="Group_45" data-name="Group 45" transform="translate(0 0)">
        <path id="Path_31" data-name="Path 31" d="M302.769,36.323a1.954,1.954,0,0,0-2.763,0l-5.146,5.146a1.954,1.954,0,0,0,2.763,2.763l5.146-5.146A1.954,1.954,0,0,0,302.769,36.323Z" transform="translate(-294.287 -35.75)" fill="#008cff"/>
      </g>
    </g>
    <g id="Group_48" data-name="Group 48" transform="translate(1326.166 1142.975)">
      <g id="Group_47" data-name="Group 47" transform="translate(0 0)">
        <path id="Path_32" data-name="Path 32" d="M162.874,41.417l-5.146-5.146a1.954,1.954,0,1,0-2.763,2.763l5.146,5.146a1.954,1.954,0,0,0,2.763-2.763Z" transform="translate(-154.392 -35.699)" fill="#008cff"/>
      </g>
    </g>
    <g id="Group_50" data-name="Group 50" transform="translate(1321.202 1196.129)">
      <g id="Group_49" data-name="Group 49" transform="translate(0 0)">
        <path id="Path_33" data-name="Path 33" d="M137.738,307.726h-6.8a1.954,1.954,0,1,0,0,3.908h1.446v10.543a1.954,1.954,0,0,0,3.908,0V311.634h1.446a1.954,1.954,0,1,0,0-3.908Z" transform="translate(-128.985 -307.726)" fill="#008cff"/>
      </g>
    </g>
    <g id="Group_52" data-name="Group 52" transform="translate(1334.267 1196.223)">
      <g id="Group_51" data-name="Group 51" transform="translate(0 0)">
        <path id="Path_34" data-name="Path 34" d="M209.944,321.816l-5.168-12.4a1.954,1.954,0,0,0-3.607,0L196,321.816a1.954,1.954,0,0,0,3.607,1.5l.3-.717h6.131l.3.717a1.954,1.954,0,0,0,3.607-1.5Zm-8.409-3.122,1.437-3.449,1.437,3.449Z" transform="translate(-195.849 -308.211)" fill="#008cff"/>
      </g>
    </g>
    <g id="Group_54" data-name="Group 54" transform="translate(1353.128 1196.127)">
      <g id="Group_53" data-name="Group 53" transform="translate(0 0)">
        <path id="Path_35" data-name="Path 35" d="M300.73,315.923l3.373-5.187a1.954,1.954,0,1,0-3.276-2.13l-2.428,3.734-2.428-3.734a1.954,1.954,0,1,0-3.276,2.13l3.373,5.187L292.7,321.11a1.954,1.954,0,1,0,3.276,2.131l2.428-3.734,2.428,3.734a1.954,1.954,0,0,0,3.276-2.131Z" transform="translate(-292.379 -307.716)" fill="#008cff"/>
      </g>
    </g>
    <g id="Group_36" data-name="Group 36" transform="translate(1296 1158.21)">
      <g id="Group_35" data-name="Group 35" transform="translate(0 0)">
        <path id="Path_26" data-name="Path 26" d="M98.058,147.069a5.842,5.842,0,0,0-8.252,0,1.954,1.954,0,0,0,2.764,2.764,1.929,1.929,0,0,1,2.726,0,2.9,2.9,0,0,1,0,4.1,4.11,4.11,0,0,1-5.813,0l0,0c.013-.376.022-.752.022-1.129a30.949,30.949,0,0,0-18.146-28.135,1.954,1.954,0,1,0-1.613,3.56,26.974,26.974,0,0,1,3.46,47.266,1.954,1.954,0,0,0-.9,1.643v9.287a1.174,1.174,0,0,1-1.172,1.172H61.754a1.174,1.174,0,0,1-1.172-1.172v-3.849a2.81,2.81,0,0,0-2.807-2.807H37.6a2.81,2.81,0,0,0-2.807,2.807v3.849a1.174,1.174,0,0,1-1.172,1.172H24.237a1.174,1.174,0,0,1-1.172-1.172v-9.287a1.954,1.954,0,0,0-.9-1.643,26.953,26.953,0,0,1-11.411-15.475,1.955,1.955,0,0,0-2.434-1.353H6.45a2.537,2.537,0,0,1-2.534-2.534V149.47a2.537,2.537,0,0,1,2.534-2.534h1.9a1.955,1.955,0,0,0,2.409-1.36A26.988,26.988,0,0,1,34.793,125.9a1.954,1.954,0,0,0-.278-3.9,30.672,30.672,0,0,0-5.455.891,11.7,11.7,0,0,0-11.422-9.23h-.743a1.954,1.954,0,0,0-1.954,1.954v15.329a30.785,30.785,0,0,0-7.491,12.08h-1A6.449,6.449,0,0,0,.008,149.47v6.656a6.449,6.449,0,0,0,6.442,6.442h1a30.852,30.852,0,0,0,11.705,15.607v8.243a5.086,5.086,0,0,0,5.08,5.08h9.379a5.086,5.086,0,0,0,5.08-5.08V183.67H56.673v2.748a5.086,5.086,0,0,0,5.08,5.08h9.379a5.086,5.086,0,0,0,5.08-5.08v-8.243A30.749,30.749,0,0,0,89.01,158.3a8.031,8.031,0,0,0,9.048-1.606A6.813,6.813,0,0,0,98.058,147.069Zm-79.209-29.4a7.793,7.793,0,0,1,6.465,6.452,30.915,30.915,0,0,0-6.465,3.527Z" transform="translate(-0.008 -113.665)" fill="#008cff"/>
      </g>
    </g>
    <g id="Group_38" data-name="Group 38" transform="translate(1316.169 1184.093)">
      <g id="Group_37" data-name="Group 37" transform="translate(0 0)">
        <path id="Path_27" data-name="Path 27" d="M106.563,246.7a1.953,1.953,0,1,0,.573,1.381A1.961,1.961,0,0,0,106.563,246.7Z" transform="translate(-103.228 -246.13)" fill="#008cff"/>
      </g>
    </g>
  </g>
</svg>
