<svg xmlns="http://www.w3.org/2000/svg" width="100.402" height="100.402" viewBox="0 0 100.402 100.402">
  <g id="Group_62" data-name="Group 62" transform="translate(-1173 -363)">
    <g id="Group_3" data-name="Group 3" transform="translate(1173 363)">
      <g id="Group_2" data-name="Group 2">
        <path id="Path_15" data-name="Path 15" d="M77.395,0H6.276A6.275,6.275,0,0,0,0,6.275v50.2a6.275,6.275,0,0,0,6.275,6.275H33.469V58.568H6.276a2.092,2.092,0,0,1-2.092-2.092V6.275A2.092,2.092,0,0,1,6.276,4.183H77.395a2.092,2.092,0,0,1,2.092,2.092V43.926H83.67V6.275A6.275,6.275,0,0,0,77.395,0Z" transform="translate(-0.001)" fill="#6c63ff"/>
      </g>
    </g>
    <g id="Group_5" data-name="Group 5" transform="translate(1198.101 423.66)">
      <g id="Group_4" data-name="Group 4" transform="translate(0 0)">
        <rect id="Rectangle_6" data-name="Rectangle 6" width="4.183" height="12.55" fill="#6c63ff"/>
      </g>
    </g>
    <g id="Group_7" data-name="Group 7" transform="translate(1181.367 406.926)">
      <g id="Group_6" data-name="Group 6" transform="translate(0 0)">
        <path id="Path_16" data-name="Path 16" d="M48.943,230.275a2.092,2.092,0,0,1-2.092-2.092V224H42.668v4.183a6.275,6.275,0,0,0,6.275,6.275h4.183v-4.183Z" transform="translate(-42.668 -224)" fill="#6c63ff"/>
      </g>
    </g>
    <g id="Group_9" data-name="Group 9" transform="translate(1181.367 398.559)">
      <g id="Group_8" data-name="Group 8" transform="translate(0 0)">
        <rect id="Rectangle_7" data-name="Rectangle 7" width="4.183" height="4.183" fill="#6c63ff"/>
      </g>
    </g>
    <g id="Group_11" data-name="Group 11" transform="translate(1210.648 400.649)">
      <g id="Group_10" data-name="Group 10" transform="translate(0 0)">
        <path id="Path_17" data-name="Path 17" d="M230.784,198.647a22.727,22.727,0,1,0,0,32.14A22.727,22.727,0,0,0,230.784,198.647ZM214.7,233.261a18.543,18.543,0,1,1,18.549-18.537A18.543,18.543,0,0,1,214.7,233.261Z" transform="translate(-191.986 -191.989)" fill="#6c63ff"/>
      </g>
    </g>
    <g id="Group_13" data-name="Group 13" transform="translate(1250.254 440.251)">
      <g id="Group_12" data-name="Group 12" transform="translate(0 0)">
        <path id="Path_18" data-name="Path 18" d="M416.492,407.68l-13.13-13.125a2.091,2.091,0,0,0-2.958,0l-5.836,5.836a2.092,2.092,0,0,0,0,2.958L407.7,416.48a2.091,2.091,0,0,0,1.479.613h0a2.091,2.091,0,0,0,1.479-.619l5.836-5.836A2.092,2.092,0,0,0,416.492,407.68Zm-7.315,4.363L399,401.87l2.878-2.878,10.172,10.174Z" transform="translate(-393.956 -393.942)" fill="#6c63ff"/>
      </g>
    </g>
    <g id="Group_15" data-name="Group 15" transform="translate(1246.488 436.487)">
      <g id="Group_14" data-name="Group 14" transform="translate(0 0)">
        <rect id="Rectangle_8" data-name="Rectangle 8" width="4.183" height="10.316" transform="translate(0 2.958) rotate(-45)" fill="#6c63ff"/>
      </g>
    </g>
    <g id="Group_17" data-name="Group 17" transform="translate(1233.66 409.018)">
      <g id="Group_16" data-name="Group 16" transform="translate(0 0)">
        <path id="Path_19" data-name="Path 19" d="M309.334,234.667v4.183a10.471,10.471,0,0,1,10.459,10.459h4.183A14.658,14.658,0,0,0,309.334,234.667Z" transform="translate(-309.334 -234.667)" fill="#6c63ff"/>
      </g>
    </g>
    <g id="Group_19" data-name="Group 19" transform="translate(1193.917 434.118)">
      <g id="Group_18" data-name="Group 18" transform="translate(0 0)">
        <rect id="Rectangle_9" data-name="Rectangle 9" width="16.734" height="4.183" fill="#6c63ff"/>
      </g>
    </g>
    <g id="Group_21" data-name="Group 21" transform="translate(1198.101 371.367)">
      <g id="Group_20" data-name="Group 20" transform="translate(0 0)">
        <path id="Path_20" data-name="Path 20" d="M134.276,42.667a6.275,6.275,0,1,0,6.275,6.275A6.275,6.275,0,0,0,134.276,42.667Zm0,8.367a2.092,2.092,0,1,1,2.092-2.092A2.092,2.092,0,0,1,134.276,51.034Z" transform="translate(-128.001 -42.667)" fill="#6c63ff"/>
      </g>
    </g>
    <g id="Group_23" data-name="Group 23" transform="translate(1212.743 386.009)">
      <g id="Group_22" data-name="Group 22" transform="translate(0 0)">
        <path id="Path_21" data-name="Path 21" d="M208.943,117.333a6.275,6.275,0,1,0,6.275,6.275A6.275,6.275,0,0,0,208.943,117.333Zm0,8.367a2.092,2.092,0,1,1,2.092-2.092A2.092,2.092,0,0,1,208.943,125.7Z" transform="translate(-202.668 -117.333)" fill="#6c63ff"/>
      </g>
    </g>
    <g id="Group_25" data-name="Group 25" transform="translate(1190.346 378.255)">
      <g id="Group_24" data-name="Group 24" transform="translate(0 0)">
        <rect id="Rectangle_10" data-name="Rectangle 10" width="14.791" height="4.183" transform="translate(0 10.458) rotate(-45)" fill="#6c63ff"/>
      </g>
    </g>
    <g id="Group_27" data-name="Group 27" transform="translate(1204.979 378.261)">
      <g id="Group_26" data-name="Group 26" transform="translate(0 0)">
        <rect id="Rectangle_11" data-name="Rectangle 11" width="4.183" height="14.791" transform="translate(0 2.958) rotate(-45)" fill="#6c63ff"/>
      </g>
    </g>
    <g id="Group_29" data-name="Group 29" transform="translate(1227.385 371.367)">
      <g id="Group_28" data-name="Group 28" transform="translate(0 0)">
        <path id="Path_22" data-name="Path 22" d="M283.609,42.667a6.275,6.275,0,1,0,6.275,6.275A6.275,6.275,0,0,0,283.609,42.667Zm0,8.367a2.092,2.092,0,1,1,2.092-2.092A2.092,2.092,0,0,1,283.609,51.034Z" transform="translate(-277.334 -42.667)" fill="#6c63ff"/>
      </g>
    </g>
    <g id="Group_31" data-name="Group 31" transform="translate(1219.629 378.263)">
      <g id="Group_30" data-name="Group 30" transform="translate(0 0)">
        <rect id="Rectangle_12" data-name="Rectangle 12" width="14.791" height="4.183" transform="translate(0 10.458) rotate(-45)" fill="#6c63ff"/>
      </g>
    </g>
  </g>
</svg>
