<svg xmlns="http://www.w3.org/2000/svg" width="100.043" height="100.043" viewBox="0 0 100.043 100.043">
  <g id="Group_56" data-name="Group 56" transform="translate(-973 -233)">
    <g id="Group_1" data-name="Group 1" transform="translate(973 233)">
      <rect id="Rectangle_1" data-name="Rectangle 1" width="4" height="3" transform="translate(48.022 90.022)" fill="#05bd6e"/>
      <path id="Path_5" data-name="Path 5" d="M8.67,42.017H23.176l9.584,6.389a1.667,1.667,0,0,0,2.588-1.387v-5h6.67a6.67,6.67,0,0,0,6.67-6.67V8.67A6.67,6.67,0,0,0,42.017,2H8.67A6.67,6.67,0,0,0,2,8.67V35.348A6.67,6.67,0,0,0,8.67,42.017ZM5.335,8.67A3.335,3.335,0,0,1,8.67,5.335H42.017A3.335,3.335,0,0,1,45.352,8.67V35.348a3.335,3.335,0,0,1-3.335,3.335H33.68a1.667,1.667,0,0,0-1.667,1.667V43.9L24.6,38.963a1.677,1.677,0,0,0-.925-.28H8.67a3.335,3.335,0,0,1-3.335-3.335Z" transform="translate(-2 -2)" fill="#05bd6e"/>
      <path id="Path_6" data-name="Path 6" d="M9.667,32.678H30.676a4,4,0,0,0,4-4v-8.67a4,4,0,0,0-4-4H28.009V12.67A6.67,6.67,0,0,0,21.339,6,3.335,3.335,0,0,0,18,9.335v4.312L15.647,16H9.667A1.667,1.667,0,0,0,8,17.672V31.011A1.667,1.667,0,0,0,9.667,32.678ZM20.851,15.516a1.667,1.667,0,0,0,.489-1.179v-5a3.335,3.335,0,0,1,3.335,3.335V16H23.006v3.335h7.67a.667.667,0,0,1,.667.667v8.67a.667.667,0,0,1-.667.667H18V18.362Zm-9.516,3.823H14.67v10H11.335Z" transform="translate(2.004 0.67)" fill="#05bd6e"/>
      <path id="Path_7" data-name="Path 7" d="M95.374,12.67H78.533A8.352,8.352,0,0,0,70.363,6H52.022V9.335H70.363a5,5,0,0,1,4.7,3.335h-9.7A6.648,6.648,0,0,0,59.618,16h-7.6v3.335h6.67V42.683a6.67,6.67,0,0,0,6.67,6.67v5a1.667,1.667,0,0,0,2.593,1.387L75.365,50.8V63.668l-2.99-2.99A7.562,7.562,0,1,0,61.681,71.373l8.2,8.2a16.255,16.255,0,0,0-1.6,3.126H53.689v3.335H67.382a16.279,16.279,0,0,0,1.609,10H33.68a5,5,0,0,1-5-5H42.017a6.67,6.67,0,0,0,6.67-6.67V71.028a6.67,6.67,0,0,0-6.67-6.67h-6.67v-5a1.667,1.667,0,0,0-2.593-1.387L28.678,60.69V46.017H25.343V62.911l-2.168,1.447H8.67A6.67,6.67,0,0,0,2,71.028V84.367a6.67,6.67,0,0,0,6.67,6.67H25.343a8.347,8.347,0,0,0,8.337,8.337H70.363a8.171,8.171,0,0,0,1.224-.1,1.621,1.621,0,0,0,.444.1H92.039a1.667,1.667,0,0,0,1.667-1.667V66.093A18.255,18.255,0,0,0,89.241,54.1l-3.665-4.752h9.8a6.67,6.67,0,0,0,6.67-6.67V19.339A6.67,6.67,0,0,0,95.374,12.67ZM8.67,87.7a3.335,3.335,0,0,1-3.335-3.335V71.028A3.335,3.335,0,0,1,8.67,67.693H23.676a1.677,1.677,0,0,0,.925-.28l7.412-4.942v3.555a1.667,1.667,0,0,0,1.667,1.667h8.337a3.335,3.335,0,0,1,3.335,3.335V84.367A3.335,3.335,0,0,1,42.017,87.7Zm78-31.484a15.007,15.007,0,0,1,3.707,9.874V96.039h-17.5a12.952,12.952,0,0,1-.21-14.626l.75-1.117a1.667,1.667,0,0,0-.205-2.109l-9.171-9.171a4.228,4.228,0,1,1,5.98-5.98L82.523,75.542l2.358-2.358L78.7,67V49.352h2.668ZM98.709,42.683a3.335,3.335,0,0,1-3.335,3.335H77.033a1.677,1.677,0,0,0-.925.28L68.7,51.24V47.685a1.667,1.667,0,0,0-1.667-1.667H65.361a3.335,3.335,0,0,1-3.335-3.335V19.339A3.335,3.335,0,0,1,65.361,16H95.374a3.335,3.335,0,0,1,3.335,3.335Z" transform="translate(-2 0.67)" fill="#05bd6e"/>
      <path id="Path_8" data-name="Path 8" d="M61.752,15.122a6.836,6.836,0,0,0-5.657,1.472l-1.749,1.437L52.6,16.594a6.836,6.836,0,0,0-5.659-1.472,7.208,7.208,0,0,0-4.932,3.695A8.087,8.087,0,0,0,43.966,29l9.352,7.323a1.667,1.667,0,0,0,2.054,0L64.725,29a8.09,8.09,0,0,0,1.959-10.189,7.211,7.211,0,0,0-4.932-3.693Zm.917,11.248-8.324,6.518L46.021,26.37a4.782,4.782,0,0,1-1.1-5.953A3.9,3.9,0,0,1,47.57,18.4a3.6,3.6,0,0,1,.652-.062,3.538,3.538,0,0,1,2.258.834l2.806,2.309a1.667,1.667,0,0,0,2.118,0l2.808-2.309a3.485,3.485,0,0,1,2.908-.775,3.9,3.9,0,0,1,2.644,2.021,4.784,4.784,0,0,1-1.1,5.958Z" transform="translate(24.022 6.678)" fill="#05bd6e"/>
      <rect id="Rectangle_2" data-name="Rectangle 2" width="23" height="3" transform="translate(7.022 74.022)" fill="#05bd6e"/>
      <rect id="Rectangle_3" data-name="Rectangle 3" width="6" height="3" transform="translate(34.022 74.022)" fill="#05bd6e"/>
      <rect id="Rectangle_4" data-name="Rectangle 4" width="9" height="4" transform="translate(7.022 80.022)" fill="#05bd6e"/>
      <rect id="Rectangle_5" data-name="Rectangle 5" width="20" height="4" transform="translate(20.022 80.022)" fill="#05bd6e"/>
    </g>
  </g>
</svg>
