<svg xmlns="http://www.w3.org/2000/svg" width="100.166" height="121.443" viewBox="0 0 100.166 121.443">
  <g id="Group_60" data-name="Group 60" transform="translate(-1444.8 -38)">
    <g id="Group_55" data-name="Group 55" transform="translate(1444.8 38)">
      <g id="Group_32" data-name="Group 32" transform="translate(0)">
        <path id="Path_23" data-name="Path 23" d="M109.616,65.139,99.389,49.415a5.973,5.973,0,0,1-.511-1.79A43.894,43.894,0,0,0,62.062,8h0a5.456,5.456,0,0,0-5.5-5.5H48.511a5.456,5.456,0,0,0-5.5,5.5V9.147A44.211,44.211,0,0,0,10.8,51.588,50.352,50.352,0,0,0,28.313,89.172a2.153,2.153,0,0,1,.767,1.406v23.394a6.936,6.936,0,0,0,6.264,6.9l35.027,3.068h.639a7.262,7.262,0,0,0,4.73-1.79,7.075,7.075,0,0,0,2.3-5.113V101.955H88.907A10.257,10.257,0,0,0,99.134,91.729V77.283H103.1a7.8,7.8,0,0,0,6.52-12.144ZM104.119,70a1.057,1.057,0,0,1-1.023.639H97.088a4.719,4.719,0,0,0-4.73,4.73V91.729a3.437,3.437,0,0,1-3.452,3.452H76.635a5.4,5.4,0,0,0-5.369,5.369L71.138,117.3l-35.282-3.324V90.578a8.78,8.78,0,0,0-3.068-6.52C23.456,76,17.575,63.6,17.575,51.588a37.412,37.412,0,0,1,25.567-35.41V39.316a18.507,18.507,0,0,1,9.46-2.685,18.157,18.157,0,0,1,9.46,2.685V14.772A37.244,37.244,0,0,1,92.231,48.265a12.021,12.021,0,0,0,1.406,4.6l10.355,15.851A1.2,1.2,0,0,1,104.119,70Z" transform="translate(-10.8 -2.5)" fill="#fb6340"/>
        <path id="Path_24" data-name="Path 24" d="M73.217,64.7,60.69,64.569,54.809,54.6a11.716,11.716,0,0,0,3.2-8.181A11.953,11.953,0,1,0,46.116,58.433a10.9,10.9,0,0,0,2.94-.384l5.88,9.971a7.26,7.26,0,0,0,6.008,3.452H73.09a3.384,3.384,0,0,0,3.324-3.324A3.229,3.229,0,0,0,73.217,64.7Z" transform="translate(-4.315 6.379)" fill="#fb6340"/>
      </g>
    </g>
  </g>
</svg>
