<svg id="Layer_1" data-name="Layer 1" xmlns="http://www.w3.org/2000/svg" viewBox="0 0 15 15"><defs><style>.cls-1{fill:#8b95fe;}</style></defs><title>IP check</title><path id="file-document-box-search" class="cls-1" d="M9.56,6.62a3.32,3.32,0,0,1,3.32,3.31,3.37,3.37,0,0,1-.51,1.77L14.63,14l-1,1-2.3-2.26A3.31,3.31,0,1,1,7.82,7.12a3.26,3.26,0,0,1,1.74-.5m0,1.47A1.84,1.84,0,1,0,11.4,9.93h0A1.84,1.84,0,0,0,9.56,8.09m-6.25.74V10.3H4.78a4.92,4.92,0,0,0,1.33,2.94H1.84A1.47,1.47,0,0,1,.37,11.77h0V1.47A1.46,1.46,0,0,1,1.83,0H12.14a1.47,1.47,0,0,1,1.47,1.47h0V7.38A4.78,4.78,0,0,0,7,5.88H3.31V7.35H5.52a5.09,5.09,0,0,0-.61,1.47H3.31m7.36-4.41V2.94H3.31V4.41Z"/></svg>