<svg id="Layer_1" data-name="Layer 1" xmlns="http://www.w3.org/2000/svg" viewBox="0 0 15 15"><defs><style>.cls-1{fill:#05bd6e;}</style></defs><title>Quick Designer</title><g id="Group_11" data-name="Group 11"><g id="Group_10" data-name="Group 10"><path id="Path_114" data-name="Path 114" class="cls-1" d="M9.08.15h5.23L12,5.63l3,1.45L13.9,8.45l-2.34,2.92-2.17,2.7-.45.57c-.06.07-.13.24-.25.21l-.1-.07c-.17-.17-.29-.26-.21-.5s.17-.47.25-.7c.17-.47.33-.94.49-1.41l1-2.95.06-.15-3-1.27-.61-.26h0c.1-.26.19-.53.29-.8L7,6.21a1.69,1.69,0,0,0,.15-.43l.31-.9.15-.43A1.48,1.48,0,0,0,7.72,4L8.94.55A1.47,1.47,0,0,0,9.08.15Z"/><g id="Group_7" data-name="Group 7"><path id="Path_115" data-name="Path 115" class="cls-1" d="M5.87,4.66h-3a1,1,0,0,1-1-1h0a1,1,0,0,1,1-1h3a1,1,0,0,1,1,1h0A1,1,0,0,1,5.87,4.66Z"/></g><g id="Group_8" data-name="Group 8"><path id="Path_116" data-name="Path 116" class="cls-1" d="M4,8.33H1a1,1,0,0,1-1-1H0a1,1,0,0,1,1-1H4a1,1,0,0,1,1,1H5A1,1,0,0,1,4,8.33Z"/></g><g id="Group_9" data-name="Group 9"><path id="Path_117" data-name="Path 117" class="cls-1" d="M5.81,12h-3a1,1,0,0,1-1-1h0a1,1,0,0,1,1-1h3a1,1,0,0,1,1,1h0A1,1,0,0,1,5.81,12Z"/></g></g></g></svg>