<svg id="Layer_1" data-name="Layer 1" xmlns="http://www.w3.org/2000/svg" viewBox="0 0 15 15"><defs><style>.cls-1{fill:#f5365c;}</style></defs><title>Reports</title><path id="Union_8" data-name="Union 8" class="cls-1" d="M11.62,15a.84.84,0,0,1-.83-.84.34.34,0,0,1,0-.1V5.63a.84.84,0,0,1,.73-.94h1.74a.84.84,0,0,1,.83.84.38.38,0,0,1,0,.1v8.43a.83.83,0,0,1-.73.93H11.62ZM6.68,15a.82.82,0,0,1-.83-.84V.94A.83.83,0,0,1,6.58,0H8.32a.82.82,0,0,1,.83.84V14.06a.83.83,0,0,1-.73.93H6.68ZM1.73,15a.84.84,0,0,1-.83-.84.31.31,0,0,1,0-.1V10.31a.83.83,0,0,1,.73-.93H3.38a.84.84,0,0,1,.83.84.28.28,0,0,1,0,.09v3.75a.83.83,0,0,1-.73.93H1.73Z"/></svg>