<svg id="Layer_1" data-name="Layer 1" xmlns="http://www.w3.org/2000/svg" viewBox="0 0 15 15"><defs><style>.cls-1{fill:#f12473;}</style></defs><title>Review</title><path id="eye-check" class="cls-1" d="M15,10l-3.33,3.34L9.33,11l1-1,1.34,1.34L14,9l1,1M7.33,4.67a2,2,0,1,1-2,2,2,2,0,0,1,2-2h0m0,5.33a2.81,2.81,0,0,0,.95-.14A4.14,4.14,0,0,0,8,11.34v.3l-.67,0A7.86,7.86,0,0,1,0,6.67a7.88,7.88,0,0,1,14.67,0,7.87,7.87,0,0,1-.62,1.23A4,4,0,0,0,12,7.34a4.13,4.13,0,0,0-1.47.28,3.29,3.29,0,0,0,.14-.94A3.34,3.34,0,1,0,7.33,10h0Z"/></svg>