<svg xmlns="http://www.w3.org/2000/svg" width="49.255" height="33.803" viewBox="0 0 49.255 33.803"><g transform="translate(0 -0.039)"><path d="M49.128,20.585,46.635,16.77a5.95,5.95,0,0,0-5-2.692H35.182v-3.71A4.112,4.112,0,0,0,31.074,6.26H19A7.661,7.661,0,1,0,7.238,14.078H.782a.782.782,0,1,0,0,1.564H8.6v1.564H5.472a.782.782,0,0,0,0,1.564H8.6v1.564H.782a.782.782,0,0,0,0,1.564H8.6v3.463a3.921,3.921,0,0,0-2.346,3.584v.772a.782.782,0,0,0,.782.782h6.934a4.318,4.318,0,0,0,8.413,0H37.426a4.318,4.318,0,0,0,8.413,0h2.635a.781.781,0,0,0,.782-.782v-8.7a.782.782,0,0,0-.127-.428ZM5.381,7.7a6.1,6.1,0,1,1,6.1,6.1,6.107,6.107,0,0,1-6.1-6.1ZM10.164,21.9h1.564a.782.782,0,0,0,0-1.564H10.164V18.769h5.473a.782.782,0,0,0,0-1.564H10.164V15.642H20.327a.782.782,0,0,0,0-1.564h-4.6a7.659,7.659,0,0,0,3.414-6.255H31.075a2.547,2.547,0,0,1,2.544,2.544V25.024H10.164Zm23.455,7.036H22.455a4.3,4.3,0,0,0-1.111-2.346H33.619ZM10.173,26.587h4.837A4.3,4.3,0,0,0,13.9,28.933H7.818a2.359,2.359,0,0,1,2.355-2.346Zm8,5.69a2.758,2.758,0,1,1,2.758-2.758,2.762,2.762,0,0,1-2.758,2.758Zm23.455,0a2.758,2.758,0,1,1,2.758-2.758A2.762,2.762,0,0,1,41.632,32.278Zm6.059-3.345H45.91a4.317,4.317,0,0,0-8.555,0H35.182V15.642H41.63a4.393,4.393,0,0,1,3.7,1.983l2.365,3.62Zm0,0" transform="translate(0)"/><path d="M354.91,247.564a1.279,1.279,0,1,1-1.279-1.279A1.279,1.279,0,0,1,354.91,247.564Zm0,0" transform="translate(-311.999 -218.045)"/><path d="M150.113,247.564a1.279,1.279,0,1,1-1.279-1.279A1.279,1.279,0,0,1,150.113,247.564Zm0,0" transform="translate(-130.656 -218.045)"/><path d="M83.638,34.464V31.043a.782.782,0,0,0-1.564,0v3.166l-1.6,2.189a.782.782,0,1,0,1.263.921l1.746-2.394a.782.782,0,0,0,.15-.46Zm0,0" transform="translate(-71.129 -26.762)"/><path d="M343.61,143.1h-1.5a.782.782,0,0,0-.782.782v5.473a.782.782,0,0,0,.782.782h5.262a1.358,1.358,0,0,0,1.179-2.031l-1.826-3.2a3.6,3.6,0,0,0-3.12-1.81Zm-.714,5.473v-3.909h.714a2.033,2.033,0,0,1,1.762,1.022l1.649,2.887Zm0,0" transform="translate(-302.241 -126.682)"/></g></svg>