<svg id="Layer_1" data-name="Layer 1" xmlns="http://www.w3.org/2000/svg" viewBox="0 0 15 15"><defs><style>.cls-1{fill:#6c63ff;}</style></defs><title>Uploadtostores</title><g id="Group_2483" data-name="Group 2483"><path id="Subtraction_4" data-name="Subtraction 4" class="cls-1" d="M11.24,14.43H3.69c-.41,0-.48-.07-.48-.49V7.16a.33.33,0,0,0-.27-.36L.35,5.94C.14,5.87.05,5.81,0,5.73s0-.19.09-.38C.82,4,1.51,2.69,2.18,1.35A.53.53,0,0,1,2.59,1L5.31.6a1.73,1.73,0,0,1,.32,0c.24,0,.27.11.27.51A1.63,1.63,0,0,0,6,1.67a1.61,1.61,0,0,0,1.5,1.05,1.53,1.53,0,0,0,.3,0,1.59,1.59,0,0,0,1.3-1.61c0-.36,0-.51.29-.51a1.24,1.24,0,0,1,.27,0l2.76.49a.49.49,0,0,1,.39.29c.83,1.57,1.49,2.84,2.09,4a.51.51,0,0,1,.08.36c0,.1-.14.17-.3.24l-.79.27h0c-.56.19-1.15.39-1.73.57a.48.48,0,0,0-.29.17.45.45,0,0,0-.07.32v6.58C11.8,14.43,11.75,14.43,11.24,14.43ZM6,10a.24.24,0,0,0-.24.24v1.43A.24.24,0,0,0,6,12H9.35a.24.24,0,0,0,.24-.24V10.28A.24.24,0,0,0,9.35,10ZM7.68,4.32a.23.23,0,0,0-.17.08L4.89,7.26a.24.24,0,0,0,0,.25.24.24,0,0,0,.22.14h.72V9.32A.23.23,0,0,0,6,9.56H9.35a.24.24,0,0,0,.24-.24V7.65h.72a.23.23,0,0,0,.21-.14.21.21,0,0,0,0-.25L7.86,4.4a.25.25,0,0,0-.18-.08Z"/></g></svg>