<svg xmlns="http://www.w3.org/2000/svg" xmlns:xlink="http://www.w3.org/1999/xlink" width="40" height="39.984" viewBox="0 0 40 39.984"><defs><style>.a{fill:#1b6de0;}.b{clip-path:url(#a);}</style><clipPath id="a"><rect class="a" width="40" height="39.984"/></clipPath></defs><g class="b"><path class="a" d="M39.656,35.564l-18.485-18.4V14.136H31.719a1.171,1.171,0,0,0,.829-2L28.688,8.279l3.859-3.857a1.171,1.171,0,0,0-.829-2H20a1.171,1.171,0,0,0-1.172,1.171V17.165L.344,35.564a1.171,1.171,0,0,0,.829,2H38.828a1.171,1.171,0,0,0,.829-2ZM21.172,4.765H28.89L26.2,7.451a1.171,1.171,0,0,0,0,1.656l2.687,2.686H21.172ZM20,19.307l6.546,6.543-1.858,1.858L20.829,23.85a1.172,1.172,0,0,0-1.657,0l-3.859,3.857L13.454,25.85ZM4,35.221l7.8-7.715,2.687,2.686a1.172,1.172,0,0,0,1.657,0L20,26.335l3.859,3.857a1.172,1.172,0,0,0,1.657,0L28.2,27.507,36,35.221Z"/></g></svg>